# Blender 3.4.1
# www.blender.org
o Cube
v -0.811079 -2.054255 -0.191059
v -0.758726 -2.048038 0.683018
v -0.819761 2.138003 -0.249104
v -0.795826 1.964153 0.412293
v 0.811079 -2.054255 -0.191059
v 0.758726 -2.048038 0.683018
v 0.819761 2.138003 -0.249104
v 0.795826 1.964153 0.412293
v -0.906149 0.315358 -0.277765
v -0.708414 0.315358 1.099600
v 0.906149 0.315358 -0.277765
v 0.708414 0.315358 1.099600
v -0.824602 1.232853 0.609130
v 0.904222 1.091684 -0.277765
v -0.904222 1.091684 -0.277765
v 0.824602 1.232853 0.609130
v -0.906149 -0.950241 -0.277765
v 0.708414 -1.025692 1.113281
v -0.708414 -1.025692 1.113281
v 0.906149 -0.950241 -0.277765
v 0.000000 2.335052 -0.228751
v 0.000000 2.162284 0.413770
v 0.000000 -2.186073 -0.189908
v 0.000000 -2.171570 0.683018
v 0.000000 0.359020 1.142344
v 0.000000 0.315358 -0.277765
v 0.000000 1.092810 -0.277765
v 0.000000 1.232853 0.651606
v 0.000000 -1.072513 1.157886
v 0.000000 -0.938748 -0.277765
v -0.833227 -2.104885 0.273012
v -0.837591 2.147326 0.120865
v 0.837591 2.147326 0.120865
v 0.833227 -2.104885 0.273012
v 0.956353 0.315358 0.212342
v -0.956353 0.315358 0.212342
v 0.979348 1.270372 0.200372
v -0.979348 1.270372 0.200372
v -0.983373 -1.094921 0.141127
v 0.983373 -1.094921 0.141127
v 0.000000 -2.249231 0.210347
v 0.000000 2.353002 0.120865
v -0.934256 -1.703677 -0.212811
v 0.833228 -1.629533 0.752200
v -0.833228 -1.629533 0.752200
v 0.934256 -1.703677 -0.212811
v 0.000000 -1.767911 0.752200
v 0.000000 -1.706038 -0.212811
v -0.981000 -1.539419 0.151214
v 0.981000 -1.539419 0.151214
v -0.808275 -2.085433 0.513537
v -0.825473 2.072940 0.273369
v 0.825473 2.072940 0.273369
v 0.808275 -2.085433 0.513537
v 0.949104 0.315358 0.487977
v -0.949104 0.315358 0.487977
v 0.933326 1.216025 0.387357
v -0.933326 1.216025 0.387357
v -0.939327 -1.072513 0.487977
v 0.939327 -1.072513 0.487977
v 0.000000 -2.206678 0.510710
v 0.000000 2.279436 0.267318
v -0.923865 -1.604128 0.495261
v 0.923865 -1.604128 0.495261
v -0.832338 1.627073 0.501402
v 0.899510 1.867884 -0.257206
v -0.899510 1.867884 -0.257206
v 0.832338 1.627073 0.501402
v 0.000000 1.697569 0.548196
v 0.000000 1.862203 -0.256989
v 0.971393 1.692656 0.181871
v -0.971393 1.692656 0.181871
v 0.939268 1.678666 0.327338
v -0.939268 1.678666 0.327338
v 0.385503 2.091789 0.413770
v 0.453075 -2.163752 -0.189908
v 0.339330 0.342212 1.136268
v 0.432507 1.232853 0.651606
v 0.339330 -1.060767 1.150296
v 0.436714 2.287112 -0.233949
v 0.426898 -2.150404 0.683018
v 0.453075 0.315358 -0.277765
v 0.587185 1.092810 -0.277765
v 0.577620 -0.951333 -0.277765
v 0.476447 -2.225196 0.210347
v 0.418795 2.274678 0.120865
v 0.416614 -1.726499 0.752200
v 0.577620 -1.706038 -0.212811
v 0.446411 -2.187800 0.510710
v 0.407888 2.203865 0.267318
v 0.409005 1.662321 0.532688
v 0.579005 1.868534 -0.256989
v -0.436714 2.287112 -0.233949
v -0.426898 -2.150404 0.683018
v -0.453075 0.315358 -0.277765
v -0.587185 1.092810 -0.277765
v -0.577620 -0.951333 -0.277765
v -0.385503 2.091789 0.413770
v -0.453075 -2.163752 -0.189908
v -0.339330 0.342212 1.136268
v -0.432507 1.232853 0.651606
v -0.339330 -1.060767 1.150296
v -0.418795 2.274678 0.120865
v -0.476447 -2.225196 0.210347
v -0.577620 -1.706038 -0.212811
v -0.416614 -1.726499 0.752200
v -0.407888 2.203865 0.267318
v -0.446411 -2.187800 0.510710
v -0.579005 1.868534 -0.256989
v -0.409005 1.662321 0.532688
v -0.708414 -0.355167 1.161584
v 0.906149 -0.378577 -0.277765
v -0.906149 -0.378577 -0.277765
v 0.708414 -0.355167 1.161584
v 0.000000 -0.378577 -0.277765
v 0.000000 -0.356746 1.206174
v 0.983373 -0.378577 0.214837
v -0.983373 -0.378577 0.214837
v 0.949242 -0.378577 0.487977
v -0.949242 -0.378577 0.487977
v 0.339330 -0.359278 1.197012
v 0.453075 -0.378577 -0.277765
v -0.453075 -0.378577 -0.277765
v -0.339330 -0.359278 1.197012
v 0.591617 -1.524835 0.148935
v 0.599009 -1.102561 0.138245
v -0.591617 -1.524835 0.148935
v -0.599009 -1.102561 0.138245
v -0.586101 1.690926 0.183576
v -0.583986 1.269388 0.201555
v 0.583986 1.269388 0.201555
v 0.586101 1.690926 0.183576
vn -0.9198 0.1507 0.3624
vn -0.8325 0.2752 0.4808
vn -0.9040 0.3042 0.3005
vn 0.2043 0.8211 0.5330
vn 0.2261 0.7452 0.6273
vn 0.2452 0.8092 0.5339
vn 0.9390 -0.0905 0.3317
vn 0.9495 -0.2214 0.2225
vn 0.9669 -0.1191 0.2256
vn -0.1638 -0.9687 0.1866
vn -0.2648 -0.9255 0.2707
vn -0.2778 -0.9420 0.1884
vn 0.0045 -0.0645 -0.9979
vn 0.0040 -0.0596 -0.9982
vn 0.0041 -0.0507 -0.9987
vn -0.0588 -0.3184 0.9461
vn -0.0419 -0.1673 0.9850
vn -0.0315 -0.1613 0.9864
vn -0.0556 0.3660 0.9290
vn -0.1109 0.4628 0.8795
vn -0.0661 0.4763 0.8768
vn -0.0000 0.0088 -1.0000
vn -0.0000 -0.0000 -1.0000
vn 0.9077 0.0810 0.4118
vn 0.9776 0.0248 0.2090
vn 0.9425 0.0372 0.3323
vn -0.9741 0.0008 0.2263
vn -0.9354 0.0395 0.3513
vn -0.9776 0.0248 0.2090
vn 0.8476 0.1353 0.5130
vn 0.9198 0.1507 0.3624
vn 1.0000 0.0024 -0.0008
vn 1.0000 0.0058 -0.0052
vn 0.9999 0.0109 -0.0117
vn -0.0971 0.2636 0.9597
vn -0.0632 0.2651 0.9621
vn -0.9077 0.0810 0.4118
vn -0.9425 0.0372 0.3323
vn -0.9390 -0.0905 0.3317
vn -0.9712 -0.0155 0.2378
vn -0.9669 -0.1191 0.2256
vn -0.0641 0.0096 0.9979
vn -0.1002 -0.0692 0.9926
vn -0.0653 -0.0665 0.9956
vn -0.0002 -0.0285 -0.9996
vn 0.9741 0.0008 0.2263
vn 0.9394 -0.0190 0.3422
vn 0.9712 -0.0155 0.2378
vn -0.0000 -0.0418 -0.9991
vn 0.0002 -0.0285 -0.9996
vn -0.0000 0.0104 0.9999
vn 0.0653 -0.0665 0.9956
vn 0.0641 0.0096 0.9979
vn 0.0632 0.2651 0.9621
vn -0.0000 0.3507 0.9365
vn 0.0556 0.3660 0.9290
vn 0.0082 0.0404 -0.9991
vn -0.0000 0.0135 -0.9999
vn 0.0661 0.4763 0.8768
vn -0.0000 -0.1668 0.9860
vn 0.0315 -0.1613 0.9864
vn 0.0588 -0.3184 0.9461
vn -0.0000 -0.0665 -0.9978
vn -0.0041 -0.0507 -0.9987
vn -0.0045 -0.0645 -0.9979
vn 0.1572 -0.9616 0.2248
vn -0.0000 -0.9851 0.1717
vn 0.1638 -0.9687 0.1866
vn -0.1862 0.7661 0.6152
vn -0.0000 0.8407 0.5415
vn -0.2043 0.8211 0.5330
vn -0.2192 0.9441 0.2461
vn -0.0000 0.9998 -0.0188
vn -0.2220 0.9747 0.0272
vn 0.1668 -0.9730 -0.1594
vn -0.0000 -1.0000 -0.0095
vn -0.0000 -0.9878 -0.1559
vn 0.9998 0.0178 -0.0093
vn 0.9865 0.0077 -0.1636
vn 0.9902 0.0081 -0.1396
vn -0.0198 0.9036 -0.4280
vn -0.0365 0.9091 -0.4149
vn -0.0117 0.9007 -0.4342
vn -0.9995 0.0091 -0.0295
vn -0.9921 -0.0122 -0.1248
vn -0.9948 0.0012 -0.1019
vn 0.0004 -0.9281 -0.3723
vn 0.0025 -0.9286 -0.3710
vn 0.0002 -0.9281 -0.3724
vn -0.9902 0.0081 -0.1396
vn 0.9921 -0.0122 -0.1248
vn 0.9995 0.0091 -0.0295
vn 0.9948 0.0012 -0.1019
vn -0.1861 -0.9824 -0.0140
vn -0.3151 -0.9391 -0.1372
vn -0.1668 -0.9730 -0.1594
vn 0.9846 -0.1579 0.0745
vn 0.9542 -0.2980 -0.0255
vn 0.9436 -0.3298 0.0277
vn 0.2220 0.9747 0.0272
vn 0.3055 0.9245 0.2280
vn 0.3610 0.9317 -0.0409
vn -0.9584 0.2810 -0.0507
vn -0.9550 0.2905 0.0594
vn -0.9573 0.2842 -0.0533
vn 0.0133 -0.9421 -0.3351
vn 0.0212 -0.9438 -0.3299
vn 0.0119 -0.9418 -0.3360
vn -0.9542 -0.2980 -0.0255
vn -0.9846 -0.1579 0.0745
vn -0.9436 -0.3298 0.0277
vn 0.0828 -0.5026 0.8605
vn -0.0000 -0.5067 0.8621
vn -0.9495 -0.2214 0.2225
vn -0.1238 -0.4948 0.8602
vn -0.0828 -0.5026 0.8605
vn 0.9991 -0.0109 -0.0421
vn 0.9989 -0.0092 -0.0450
vn 0.9986 -0.0046 -0.0530
vn 0.9998 0.0015 0.0221
vn -0.9688 -0.2439 0.0440
vn -0.0000 0.9770 0.2132
vn 0.1861 -0.9824 -0.0140
vn -0.9998 0.0015 0.0221
vn -0.9928 -0.0055 0.1199
vn 0.9928 -0.0055 0.1199
vn 0.9755 0.0279 0.2181
vn -0.9998 0.0178 -0.0093
vn -0.3194 -0.9476 0.0011
vn 0.9688 -0.2439 0.0440
vn 0.2192 0.9441 0.2461
vn -0.9487 0.2932 0.1181
vn -0.9755 0.0279 0.2181
vn 0.9040 0.3042 0.3005
vn 0.9487 0.2932 0.1181
vn 0.9550 0.2905 0.0594
vn 0.0002 0.9376 -0.3477
vn 0.0034 0.9369 -0.3496
vn 0.0003 0.9376 -0.3478
vn 0.9584 0.2810 -0.0507
vn 0.9573 0.2842 -0.0533
vn 0.0061 0.0538 -0.9985
vn -0.0000 0.0427 -0.9991
vn 0.0702 0.2712 0.9600
vn -0.0000 0.2464 0.9692
vn -0.0916 0.2655 0.9598
vn -0.0702 0.2712 0.9600
vn -0.0058 0.0344 -0.9994
vn -0.0082 0.0404 -0.9991
vn -0.0061 0.0538 -0.9985
vn 0.8325 0.2752 0.4808
vn -0.8476 0.1353 0.5130
vn -0.0000 0.0596 -0.9982
vn 0.0916 0.2655 0.9598
vn 0.0971 0.2636 0.9597
vn 0.2778 -0.9420 0.1884
vn 0.3194 -0.9476 0.0011
vn 0.1238 -0.4948 0.8602
vn 0.0784 -0.3368 0.9383
vn 0.3151 -0.9391 -0.1372
vn 0.2648 -0.9255 0.2707
vn 0.0419 -0.1673 0.9850
vn 0.1109 0.4628 0.8795
vn 0.1011 0.3443 0.9334
vn 0.1002 -0.0692 0.9926
vn 0.0954 0.0102 0.9954
vn -0.0000 -0.0477 -0.9989
vn 0.1862 0.7661 0.6152
vn -0.0000 0.2779 0.9606
vn 0.0058 0.0344 -0.9994
vn 0.0006 0.0298 -0.9996
vn -0.2452 0.8092 0.5339
vn -0.3055 0.9245 0.2280
vn -0.0000 -0.5039 0.8638
vn -0.0133 -0.9421 -0.3351
vn -0.0031 -0.9398 -0.3418
vn -0.0119 -0.9418 -0.3360
vn -0.3610 0.9317 -0.0409
vn -0.2261 0.7452 0.6273
vn -0.0040 -0.0596 -0.9982
vn -0.0004 -0.0621 -0.9981
vn -0.0004 -0.9281 -0.3723
vn 0.0021 -0.9275 -0.3739
vn -0.0002 -0.9281 -0.3724
vn -0.0000 -0.0673 0.9977
vn -0.0000 0.4897 0.8719
vn -0.0000 -0.1689 0.9856
vn -0.1572 -0.9616 0.2248
vn -0.0645 0.0867 0.9941
vn -0.0000 0.0888 0.9960
vn 0.0986 0.0891 0.9911
vn -0.9865 0.0077 -0.1636
vn 0.0645 0.0867 0.9941
vn 0.9354 0.0395 0.3513
vn -0.0986 0.0891 0.9911
vn -0.9394 -0.0190 0.3422
vn 0.0117 0.9007 -0.4342
vn 0.0365 0.9091 -0.4149
vn 0.0198 0.9036 -0.4280
vn -0.0059 0.8942 -0.4477
vn 0.0057 -0.0247 -0.9997
vn 0.0071 -0.0235 -0.9997
vn 0.0049 -0.0254 -0.9997
vn 0.0031 -0.9398 -0.3418
vn 0.0059 0.8942 -0.4477
vn -0.0071 -0.0235 -0.9997
vn -0.0057 -0.0247 -0.9997
vn -0.0049 -0.0254 -0.9997
vn -0.0212 -0.9438 -0.3299
vn -0.9991 -0.0109 -0.0421
vn -0.9989 -0.0092 -0.0450
vn -0.9994 -0.0182 -0.0295
vn -1.0000 0.0024 -0.0008
vn -1.0000 0.0058 -0.0052
vn -1.0000 -0.0047 0.0084
vn -0.0025 -0.9286 -0.3710
vn 0.0039 -0.0429 -0.9991
vn 0.0032 -0.0435 -0.9990
vn 0.0042 -0.0426 -0.9991
vn -0.0033 0.9384 -0.3457
vn -0.0003 0.9376 -0.3478
vn -0.0034 0.9369 -0.3496
vn -0.0002 0.9376 -0.3477
vn 0.0033 0.9384 -0.3457
vn -0.0032 -0.0435 -0.9990
vn -0.0039 -0.0429 -0.9991
vn -0.0042 -0.0426 -0.9991
vn -0.0021 -0.9275 -0.3739
vn 0.9231 -0.2168 0.3177
vn 0.0004 -0.0621 -0.9981
vn -0.0784 -0.3368 0.9383
vn -0.1011 0.3443 0.9334
vn -0.9417 0.0034 0.3365
vn 1.0000 -0.0047 0.0084
vn -0.0954 0.0102 0.9954
vn 0.9417 0.0034 0.3365
vn -0.0000 -0.9799 0.1996
vn -0.0000 0.7809 0.6247
vn -0.9231 -0.2168 0.3177
vn 0.9994 -0.0182 -0.0295
vn -0.0006 0.0298 -0.9996
vn 0.0079 -0.0227 -0.9997
vn -0.0079 -0.0227 -0.9997
vn -0.9986 -0.0046 -0.0530
vn -0.9999 0.0109 -0.0117
vn 0.0029 -0.0438 -0.9990
vn -0.0029 -0.0438 -0.9990
vt 0.686579 0.370191
vt 0.675990 0.681932
vt 0.685918 0.359236
vt 0.686579 0.672919
vt 0.009610 0.362379
vt 0.675990 0.988048
vt 0.010898 0.681932
vt 0.989324 0.684027
vt 0.685918 0.013353
vt 0.010898 0.988048
vt 0.674987 0.362379
vt 0.989324 0.986789
vt 0.989131 0.359236
vt 0.010202 0.371781
vt 0.989307 0.370191
vt 0.010202 0.673593
vt 0.989307 0.672919
vt 0.009610 0.013310
vt 0.686562 0.684027
vt 0.673458 0.371781
vt 0.989131 0.013353
vt 0.686562 0.986789
vt 0.673458 0.673593
vt 0.674987 0.013310
vt 0.343444 0.681932
vt 0.685918 0.186294
vt 0.343444 0.988048
vt 0.342299 0.362379
vt 0.341830 0.371781
vt 0.989131 0.186294
vt 0.342299 0.013310
vt 0.341830 0.673593
vt 0.508643 0.362379
vt 0.177171 0.988048
vt 0.989131 0.099824
vt 0.507644 0.371781
vt 0.685918 0.099824
vt 0.177171 0.681932
vt 0.508643 0.013310
vt 0.507644 0.673593
vt 0.685918 0.272765
vt 0.509717 0.681932
vt 0.176016 0.673593
vt 0.175954 0.013310
vt 0.175954 0.362379
vt 0.509717 0.988048
vt 0.989131 0.272765
vt 0.176016 0.371781
vt 0.837524 0.013353
vt 0.837943 0.684027
vt 0.674987 0.187845
vt 0.837943 0.986789
vt 0.837943 0.370191
vt 0.837524 0.359236
vt 0.009610 0.187845
vt 0.837943 0.672919
vt 0.342299 0.187845
vt 0.837524 0.186294
vt 0.837524 0.099824
vt 0.508643 0.187845
vt 0.175954 0.187845
vt 0.837524 0.272765
vt 0.686579 0.521555
vt 0.675990 0.834990
vt 0.010898 0.834990
vt 0.989324 0.835408
vt 0.686562 0.835408
vt 0.673458 0.522687
vt 0.010202 0.522687
vt 0.989307 0.521555
vt 0.341831 0.522687
vt 0.343444 0.834990
vt 0.507644 0.522687
vt 0.177171 0.834990
vt 0.509717 0.834990
vt 0.176016 0.522687
vt 0.837943 0.521555
vt 0.837943 0.835408
vt 0.592853 0.681932
vt 0.685918 0.316001
vt 0.092782 0.013310
vt 0.093109 0.673593
vt 0.592853 0.988048
vt 0.092782 0.362379
vt 0.093109 0.371781
vt 0.989131 0.316001
vt 0.092782 0.187845
vt 0.837524 0.316001
vt 0.592853 0.834990
vt 0.093109 0.522687
vt 0.675990 0.911519
vt 0.686579 0.597237
vt 0.010898 0.911519
vt 0.989324 0.911099
vt 0.686562 0.911099
vt 0.673458 0.598140
vt 0.010202 0.598140
vt 0.989307 0.597237
vt 0.341830 0.598140
vt 0.343444 0.911519
vt 0.507644 0.598140
vt 0.177171 0.911519
vt 0.509717 0.911519
vt 0.176016 0.598140
vt 0.837943 0.597237
vt 0.837943 0.911099
vt 0.592853 0.911519
vt 0.093109 0.598140
vt 0.591815 0.362379
vt 0.094035 0.988048
vt 0.590551 0.371781
vt 0.989131 0.056588
vt 0.685918 0.056588
vt 0.094035 0.681932
vt 0.590551 0.673593
vt 0.591815 0.013310
vt 0.591815 0.187845
vt 0.837524 0.056588
vt 0.590551 0.522687
vt 0.094035 0.834990
vt 0.590551 0.598140
vt 0.094035 0.911519
vt 0.674987 0.100577
vt 0.762252 0.986789
vt 0.913625 0.370191
vt 0.913328 0.359236
vt 0.342298 0.100577
vt 0.508643 0.100577
vt 0.175954 0.100577
vt 0.762252 0.684027
vt 0.913328 0.013353
vt 0.913625 0.672919
vt 0.009610 0.100578
vt 0.913328 0.186294
vt 0.913327 0.099824
vt 0.913328 0.272765
vt 0.913625 0.521555
vt 0.762252 0.835408
vt 0.092782 0.100578
vt 0.913328 0.316001
vt 0.913625 0.597237
vt 0.762252 0.911099
vt 0.591815 0.100578
vt 0.913328 0.056588
vt 0.761721 0.013353
vt 0.913633 0.684027
vt 0.009610 0.275112
vt 0.762261 0.672919
vt 0.761721 0.186294
vt 0.761721 0.099824
vt 0.761721 0.272765
vt 0.674987 0.275112
vt 0.913633 0.986789
vt 0.762261 0.370191
vt 0.761721 0.359236
vt 0.342298 0.275112
vt 0.508643 0.275112
vt 0.175954 0.275112
vt 0.913633 0.835408
vt 0.762261 0.521555
vt 0.761721 0.316001
vt 0.092782 0.275112
vt 0.913633 0.911099
vt 0.762261 0.597237
vt 0.761721 0.056588
vt 0.591815 0.275112
vt 0.259126 0.362379
vt 0.426580 0.988048
vt 0.258923 0.371781
vt 0.989131 0.229530
vt 0.426580 0.681932
vt 0.685918 0.229530
vt 0.259126 0.013310
vt 0.258923 0.673593
vt 0.837524 0.229530
vt 0.259126 0.187845
vt 0.258923 0.522687
vt 0.426580 0.834990
vt 0.258923 0.598140
vt 0.426580 0.911519
vt 0.259126 0.100577
vt 0.913328 0.229530
vt 0.761721 0.229530
vt 0.259126 0.275112
vt 0.123454 0.371781
vt 0.989131 0.300176
vt 0.989131 0.288660
vt 0.145537 0.371781
vt 0.561251 0.681932
vt 0.685918 0.299566
vt 0.539523 0.681932
vt 0.685918 0.288266
vt 0.124801 0.681932
vt 0.685918 0.072588
vt 0.685918 0.084313
vt 0.147347 0.681932
vt 0.989131 0.083799
vt 0.538373 0.371781
vt 0.560660 0.371781
vt 0.989131 0.072176
s 1
f 74/122/1 4/10/2 52/93/3
f 90/142/4 8/22/5 53/95/6
f 44/82/7 54/97/8 64/108/9
f 108/164/10 2/4/11 51/92/12
f 88/140/13 5/13/14 76/126/15
f 106/162/16 2/5/17 94/147/18
f 101/157/19 10/28/20 100/156/21
f 83/135/22 11/30/23 82/134/23
f 16/40/24 55/99/25 57/101/26
f 120/180/27 10/27/28 56/100/29
f 68/115/30 57/101/26 73/121/31
f 132/200/32 83/135/33 92/144/34
f 65/109/35 101/157/19 110/166/36
f 56/100/29 13/34/37 58/102/38
f 45/83/39 59/103/40 63/107/41
f 124/184/42 19/45/43 102/158/44
f 112/170/23 84/136/45 122/182/23
f 119/179/46 18/43/47 60/104/48
f 123/183/23 30/62/49 97/151/50
f 116/176/51 79/129/52 121/181/53
f 91/143/54 28/60/55 78/128/56
f 109/165/57 27/59/58 96/150/22
f 27/59/58 95/149/23 96/150/22
f 28/60/55 77/127/59 78/128/56
f 47/87/60 81/133/61 87/139/62
f 48/88/63 99/155/64 105/161/65
f 81/132/66 61/105/67 89/141/68
f 98/153/69 62/106/70 107/163/71
f 103/159/72 21/50/73 93/146/74
f 76/125/75 41/77/76 23/53/77
f 117/177/78 20/48/79 112/169/80
f 43/79/81 49/89/82 127/189/83
f 36/72/84 15/38/85 9/25/86
f 66/111/87 71/119/88 132/199/89
f 113/171/90 36/72/84 9/25/86
f 14/36/91 35/71/92 11/29/93
f 104/160/94 1/1/95 99/154/96
f 50/90/97 5/14/98 46/85/99
f 80/130/100 33/67/101 7/19/102
f 67/114/103 32/65/104 3/7/105
f 20/48/106 40/76/107 126/188/108
f 1/2/109 49/89/110 43/79/111
f 97/151/50 48/88/63 105/161/65
f 79/129/112 47/87/113 87/139/62
f 51/91/114 45/83/39 63/107/41
f 19/45/115 106/162/16 102/158/116
f 126/187/117 88/140/118 84/136/119
f 60/104/48 44/82/7 64/108/9
f 60/104/48 50/90/97 40/76/120
f 31/64/121 63/107/41 49/89/110
f 107/163/71 42/78/122 103/159/72
f 89/141/68 41/77/76 85/137/123
f 117/177/78 60/104/48 40/76/120
f 49/89/110 59/103/40 39/75/124
f 36/72/84 58/102/38 38/74/125
f 73/121/31 37/73/126 71/119/127
f 120/180/27 36/72/84 118/178/128
f 57/101/26 35/71/92 37/73/126
f 104/160/94 51/92/12 31/63/129
f 64/108/9 34/69/130 50/90/97
f 86/138/131 53/95/6 33/67/101
f 72/120/132 52/93/3 32/65/104
f 38/74/125 74/122/1 72/120/133
f 53/96/134 71/119/135 33/68/136
f 15/38/137 38/74/138 130/196/139
f 33/68/136 66/111/140 7/20/141
f 93/145/142 70/118/143 109/165/57
f 75/123/144 69/117/145 91/143/54
f 4/11/146 110/166/36 98/152/147
f 7/21/148 92/144/149 80/131/150
f 8/23/151 73/121/31 53/96/134
f 58/102/38 65/110/152 74/122/1
f 80/131/150 70/118/143 21/49/153
f 8/24/154 91/143/54 68/116/155
f 42/78/122 90/142/4 86/138/131
f 54/98/156 85/137/123 34/70/157
f 84/136/45 48/88/63 30/62/49
f 18/44/158 87/139/62 44/81/159
f 21/50/73 86/138/131 80/130/100
f 5/15/160 85/137/123 76/125/75
f 6/17/161 89/141/68 54/98/156
f 87/139/62 6/18/162 44/81/159
f 78/128/56 12/31/163 16/39/164
f 68/116/155 78/128/56 16/39/164
f 121/181/53 18/44/165 114/173/166
f 122/182/23 30/62/49 115/175/23
f 92/144/149 27/59/58 70/118/143
f 27/59/58 82/134/23 26/58/23
f 48/88/63 76/126/15 23/54/167
f 62/106/70 75/124/168 90/142/4
f 98/152/147 69/117/145 22/51/169
f 3/9/170 109/165/57 67/113/171
f 41/77/76 108/164/10 104/160/94
f 52/94/172 103/159/72 32/66/173
f 102/158/116 47/87/113 29/61/174
f 17/41/175 97/151/176 128/192/177
f 41/77/76 99/154/96 23/53/77
f 32/66/173 93/146/74 3/8/178
f 4/12/179 107/163/71 52/94/172
f 105/161/65 1/3/180 43/80/181
f 96/150/22 9/26/23 15/37/23
f 67/113/182 109/165/183 129/194/184
f 113/172/23 97/151/50 17/41/23
f 116/176/51 102/158/44 29/61/185
f 110/166/36 28/60/55 69/117/145
f 28/60/55 100/156/21 25/57/186
f 47/87/60 94/147/18 24/55/187
f 61/105/67 94/148/188 108/164/10
f 100/156/189 116/176/51 25/57/190
f 95/149/23 113/172/23 9/26/23
f 82/134/23 115/175/23 26/58/23
f 12/31/191 121/181/53 114/173/166
f 59/103/40 118/178/128 39/75/124
f 35/71/92 119/179/46 117/177/78
f 17/42/192 118/178/128 113/171/90
f 35/71/92 112/169/80 11/29/93
f 77/127/193 116/176/51 121/181/53
f 26/58/23 123/183/23 95/149/23
f 12/32/194 119/179/46 55/99/25
f 11/30/23 122/182/23 82/134/23
f 10/28/195 124/184/42 100/156/189
f 19/46/196 120/180/27 59/103/40
f 125/185/197 50/90/198 46/85/199
f 88/140/200 125/186/197 46/86/199
f 126/188/201 50/90/202 125/185/203
f 126/187/108 84/136/204 20/47/106
f 127/190/83 105/161/205 43/80/81
f 49/89/206 128/191/207 127/189/208
f 128/191/177 39/75/209 17/42/175
f 128/192/210 105/161/211 127/190/212
f 129/194/213 96/150/214 130/195/215
f 129/193/184 72/120/216 67/114/182
f 130/196/217 72/120/218 129/193/219
f 130/195/139 96/150/220 15/37/137
f 131/198/221 37/73/222 14/36/223
f 83/135/224 131/197/221 14/35/223
f 71/119/225 131/198/226 132/199/227
f 132/200/89 92/144/228 66/112/87
f 74/122/1 65/110/152 4/10/2
f 90/142/4 75/124/168 8/22/5
f 44/82/7 6/16/229 54/97/8
f 108/164/10 94/148/188 2/4/11
f 88/140/13 46/86/230 5/13/14
f 106/162/16 45/84/231 2/5/17
f 101/157/19 13/33/232 10/28/20
f 83/135/22 14/35/23 11/30/23
f 16/40/24 12/32/194 55/99/25
f 120/180/27 111/168/233 10/27/28
f 68/115/30 16/40/24 57/101/26
f 132/200/32 131/197/234 83/135/33
f 65/109/35 13/33/232 101/157/19
f 56/100/29 10/27/28 13/34/37
f 45/83/39 19/46/196 59/103/40
f 124/184/42 111/167/235 19/45/43
f 112/170/23 20/47/23 84/136/45
f 119/179/46 114/174/236 18/43/47
f 123/183/23 115/175/23 30/62/49
f 116/176/51 29/61/185 79/129/52
f 91/143/54 69/117/145 28/60/55
f 109/165/57 70/118/143 27/59/58
f 27/59/58 26/58/23 95/149/23
f 28/60/55 25/57/186 77/127/59
f 47/87/60 24/55/187 81/133/61
f 48/88/63 23/54/167 99/155/64
f 81/132/66 24/56/237 61/105/67
f 98/153/69 22/52/238 62/106/70
f 103/159/72 42/78/122 21/50/73
f 76/125/75 85/137/123 41/77/76
f 117/177/78 40/76/120 20/48/79
f 36/72/84 38/74/125 15/38/85
f 113/171/90 118/178/128 36/72/84
f 14/36/91 37/73/126 35/71/92
f 104/160/94 31/63/129 1/1/95
f 50/90/97 34/69/130 5/14/98
f 80/130/100 86/138/131 33/67/101
f 67/114/103 72/120/132 32/65/104
f 1/2/109 31/64/121 49/89/110
f 97/151/50 30/62/49 48/88/63
f 79/129/112 29/61/174 47/87/113
f 51/91/114 2/6/239 45/83/39
f 19/45/115 45/84/231 106/162/16
f 126/187/117 125/186/240 88/140/118
f 60/104/48 18/43/47 44/82/7
f 60/104/48 64/108/9 50/90/97
f 31/64/121 51/91/114 63/107/41
f 107/163/71 62/106/70 42/78/122
f 89/141/68 61/105/67 41/77/76
f 117/177/78 119/179/46 60/104/48
f 49/89/110 63/107/41 59/103/40
f 36/72/84 56/100/29 58/102/38
f 73/121/31 57/101/26 37/73/126
f 120/180/27 56/100/29 36/72/84
f 57/101/26 55/99/25 35/71/92
f 104/160/94 108/164/10 51/92/12
f 64/108/9 54/97/8 34/69/130
f 86/138/131 90/142/4 53/95/6
f 72/120/132 74/122/1 52/93/3
f 38/74/125 58/102/38 74/122/1
f 53/96/134 73/121/31 71/119/135
f 33/68/136 71/119/135 66/111/140
f 93/145/142 21/49/153 70/118/143
f 75/123/144 22/51/169 69/117/145
f 4/11/146 65/109/35 110/166/36
f 7/21/148 66/112/241 92/144/149
f 8/23/151 68/115/30 73/121/31
f 58/102/38 13/34/37 65/110/152
f 80/131/150 92/144/149 70/118/143
f 8/24/154 75/123/144 91/143/54
f 42/78/122 62/106/70 90/142/4
f 54/98/156 89/141/68 85/137/123
f 84/136/45 88/140/13 48/88/63
f 18/44/158 79/129/112 87/139/62
f 21/50/73 42/78/122 86/138/131
f 5/15/160 34/70/157 85/137/123
f 6/17/161 81/132/66 89/141/68
f 87/139/62 81/133/61 6/18/162
f 78/128/56 77/127/59 12/31/163
f 68/116/155 91/143/54 78/128/56
f 121/181/53 79/129/52 18/44/165
f 122/182/23 84/136/45 30/62/49
f 92/144/149 83/135/22 27/59/58
f 27/59/58 83/135/22 82/134/23
f 48/88/63 88/140/13 76/126/15
f 62/106/70 22/52/238 75/124/168
f 98/152/147 110/166/36 69/117/145
f 3/9/170 93/145/142 109/165/57
f 41/77/76 61/105/67 108/164/10
f 52/94/172 107/163/71 103/159/72
f 102/158/116 106/162/16 47/87/113
f 41/77/76 104/160/94 99/154/96
f 32/66/173 103/159/72 93/146/74
f 4/12/179 98/153/69 107/163/71
f 105/161/65 99/155/64 1/3/180
f 96/150/22 95/149/23 9/26/23
f 113/172/23 123/183/23 97/151/50
f 116/176/51 124/184/42 102/158/44
f 110/166/36 101/157/19 28/60/55
f 28/60/55 101/157/19 100/156/21
f 47/87/60 106/162/16 94/147/18
f 61/105/67 24/56/237 94/148/188
f 100/156/189 124/184/42 116/176/51
f 95/149/23 123/183/23 113/172/23
f 82/134/23 122/182/23 115/175/23
f 12/31/191 77/127/193 121/181/53
f 59/103/40 120/180/27 118/178/128
f 35/71/92 55/99/25 119/179/46
f 17/42/192 39/75/124 118/178/128
f 35/71/92 117/177/78 112/169/80
f 77/127/193 25/57/190 116/176/51
f 26/58/23 115/175/23 123/183/23
f 12/32/194 114/174/236 119/179/46
f 11/30/23 112/170/23 122/182/23
f 10/28/195 111/167/235 124/184/42
f 19/46/196 111/168/233 120/180/27
f 126/188/201 40/76/242 50/90/202
f 49/89/206 39/75/243 128/191/207
f 128/192/210 97/151/244 105/161/211
f 129/194/213 109/165/245 96/150/214
f 130/196/217 38/74/246 72/120/218
f 71/119/225 37/73/247 131/198/226
